<svg width="80" height="80" viewBox="0 0 80 80" fill="none" xmlns="http://www.w3.org/2000/svg">
<rect width="80" height="80" fill="white"/>
<g clip-path="url(#clip0_30_226)">
<path d="M49.8345 40.5546L35.7025 49.9759C35.6021 50.0427 35.4855 50.081 35.365 50.0868C35.2446 50.0925 35.1248 50.0655 35.0185 50.0086C34.9122 49.9517 34.8233 49.867 34.7613 49.7636C34.6993 49.6601 34.6666 49.5418 34.6665 49.4212V30.5786C34.6666 30.458 34.6993 30.3397 34.7613 30.2362C34.8233 30.1328 34.9122 30.0481 35.0185 29.9912C35.1248 29.9342 35.2446 29.9072 35.365 29.913C35.4855 29.9188 35.6021 29.9571 35.7025 30.0239L49.8345 39.4452C49.9258 39.5061 50.0007 39.5886 50.0525 39.6853C50.1042 39.7821 50.1313 39.8901 50.1313 39.9999C50.1313 40.1096 50.1042 40.2177 50.0525 40.3144C50.0007 40.4112 49.9258 40.4937 49.8345 40.5546Z" fill="#1A1A1A"/>
</g>
<defs>
<clipPath id="clip0_30_226">
<rect width="32" height="32" fill="white" transform="translate(24 24)"/>
</clipPath>
</defs>
</svg>
